<svg xmlns="http://www.w3.org/2000/svg" viewBox="0 0 256 256" width="256" height="256">
<defs>
  <linearGradient id="g" x1="0" y1="0" x2="1" y2="1">
    <stop offset="0" stop-color="#3d7cf7"/>
    <stop offset="1" stop-color="#1c4fcc"/>
  </linearGradient>
  <linearGradient id="hl" x1="0" y1="0" x2="0" y2="1">
    <stop offset="0" stop-color="#fff" stop-opacity=".18"/>
    <stop offset="1" stop-color="#fff" stop-opacity="0"/>
  </linearGradient>
</defs>
<rect width="256" height="256" rx="58" fill="url(#g)"/>
<rect x="1.5" y="1.5" width="253" height="253" rx="56.5" fill="none" stroke="#fff" stroke-opacity=".25" stroke-width="3"/>
<path d="M58 1.5h140a56.5 56.5 0 0 1 56.5 56.5v70H1.5V58A56.5 56.5 0 0 1 58 1.5z" fill="url(#hl)"/>
<path d="M150 70a66 66 0 0 1 34 34M72 152a66 66 0 0 1-6-24 66 66 0 0 1 66-66M184 152a66 66 0 0 1-56 42 66 66 0 0 1-40-14" fill="none" stroke="#fff" stroke-width="16" stroke-linecap="round" stroke-linejoin="round"/>
<path d="M40 128h50l14-34 24 68 16-46 10 12h62" fill="none" stroke="#fff" stroke-width="16" stroke-linecap="round" stroke-linejoin="round"/>
</svg>
